<svg width="19" height="16" viewBox="0 0 19 16" fill="none" xmlns="http://www.w3.org/2000/svg">
<path d="M18.8006 2.50046C18.115 2.8045 17.3774 3.01014 16.6039 3.10198C17.3937 2.62881 17.9998 1.88012 18.2858 0.986542C17.5468 1.42492 16.728 1.74293 15.8572 1.91435C15.1596 1.17136 14.1656 0.707031 13.065 0.707031C10.9532 0.707031 9.24051 2.41975 9.24051 4.53148C9.24051 4.83124 9.27445 5.12302 9.34005 5.4031C6.16161 5.24366 3.3434 3.72118 1.45699 1.40666C1.12785 1.97139 0.939039 2.62881 0.939039 3.32958C0.939039 4.65612 1.61471 5.82721 2.64035 6.51287C2.01373 6.49319 1.42362 6.32121 0.908236 6.034C0.90795 6.05025 0.90795 6.06651 0.90795 6.08248C0.90795 7.93552 2.22679 9.48111 3.97601 9.83221C3.65543 9.92005 3.31688 9.96654 2.96863 9.96654C2.72163 9.96654 2.48234 9.94287 2.24903 9.89837C2.73561 11.4174 4.14771 12.5232 5.82164 12.5543C4.5125 13.5802 2.86367 14.1914 1.07138 14.1914C0.763346 14.1914 0.458166 14.1735 0.159546 14.1378C1.85116 15.2233 3.86192 15.8562 6.02157 15.8562C13.0561 15.8562 16.9031 10.0287 16.9031 4.97442C16.9031 4.80871 16.8994 4.64357 16.892 4.47986C17.6398 3.9408 18.2881 3.26741 18.8006 2.50046Z" fill="#F1F2F2"/>
</svg>
